PathFileType	4	(X/Y/Z)	/Users/itak/Documents/Research/Walk-IL/dataset/trc/00501_00183.trc
DataRate	CameraRate	NumFrames	NumMarkers	Units	OrigDataRate	OrigDataStartFrame	OrigNumFrames
100.000000	100.000000	4	53	mm	100.000000	434	695
Frame#	Time	RPSI			LPSI			L3			STRN			T10			C7			CLAV			RBAK			LBAK			LSHO			LUPA			LAEL			LAOL			LWTS			LWPS			LFRA			LIFD			LHPS			LHTS			RSHO			RUPA			RAEL			RAOL			RWTS			RWPS			RFRA			RIFD			RHTS			RHPS			RBHD			LFHD			RFHD			LBHD			LHIP			RHIP			RASI			LASI			LKNE			LTHI			LANK			LTIP			LTOE			LMT1			LMT5			LHEE			RKNE			RTHI			RANK			RTIP			RTOE			RMT1			RMT5			RHEE			
		X1	Y1	Z1	X2	Y2	Z2	X3	Y3	Z3	X4	Y4	Z4	X5	Y5	Z5	X6	Y6	Z6	X7	Y7	Z7	X8	Y8	Z8	X9	Y9	Z9	X10	Y10	Z10	X11	Y11	Z11	X12	Y12	Z12	X13	Y13	Z13	X14	Y14	Z14	X15	Y15	Z15	X16	Y16	Z16	X17	Y17	Z17	X18	Y18	Z18	X19	Y19	Z19	X20	Y20	Z20	X21	Y21	Z21	X22	Y22	Z22	X23	Y23	Z23	X24	Y24	Z24	X25	Y25	Z25	X26	Y26	Z26	X27	Y27	Z27	X28	Y28	Z28	X29	Y29	Z29	X30	Y30	Z30	X31	Y31	Z31	X32	Y32	Z32	X33	Y33	Z33	X34	Y34	Z34	X35	Y35	Z35	X36	Y36	Z36	X37	Y37	Z37	X38	Y38	Z38	X39	Y39	Z39	X40	Y40	Z40	X41	Y41	Z41	X42	Y42	Z42	X43	Y43	Z43	X44	Y44	Z44	X45	Y45	Z45	X46	Y46	Z46	X47	Y47	Z47	X48	Y48	Z48	X49	Y49	Z49	X50	Y50	Z50	X51	Y51	Z51	X52	Y52	Z52	X53	Y53	Z53	

435	4.34	-26.87801361083984	961.6593017578125	160.7694091796875	23.51495933532715	957.8558959960938	47.39309692382812	-4.662498950958252	1029.51806640625	98.15281677246094	197.5566101074219	1192.417358398438	171.0381774902344	-19.64351844787598	1133.081909179688	96.99843597412109	16.7136116027832	1364.282836914062	111.1274642944336	163.3931274414062	1287.31201171875	158.9034423828125	-54.97616195678711	1242.583374023438	178.3172607421875	21.07705879211426	1310.49169921875	19.96563529968262	135.1946563720703	1355.803955078125	-18.45712661743164	147.2752990722656	1230.879150390625	-80.90715789794922	171.1280517578125	1021.437927246094	-103.3648910522461	79.33856964111328	1010.299926757812	-69.01744842529297	243.3658142089844	837.390869140625	-31.75136375427246	192.1114807128906	799.1441040039062	-100.7714614868164	190.207275390625	940.4782104492188	-98.24260711669922	247.8126068115234	680.6836547851562	-17.93864440917969	214.0403594970703	745.8842163085938	-84.79826354980469	262.5519104003906	759.9471435546875	-43.74478149414062	23.51511192321777	1359.100830078125	269.5590209960938	-8.659069061279297	1291.469970703125	320.1571044921875	-3.239642858505249	1024.727905273438	371.8223266601562	-42.64321136474609	1004.652954101562	322.5884399414062	115.9003677368164	828.1531372070312	365.7176818847656	34.12652206420898	802.8506469726562	396.1662292480469	3.740211009979248	970.2546997070312	380.6846008300781	127.4653244018555	669.449462890625	372.4891357421875	131.6667175292969	736.63134765625	395.5169067382812	61.26625061035156	730.524658203125	403.2993469238281	39.60835266113281	1523.1962890625	208.2218017578125	217.7434692382812	1569.538208007812	127.9683227539062	167.3565826416016	1561.435424804688	244.7015991210938	90.63694763183594	1531.614013671875	54.82963943481445	173.5008087158203	882.3296508789062	-29.91948509216309	23.80193710327148	863.1182250976562	316.2889404296875	140.1404113769531	909.5455932617188	294.8965759277344	230.0434722900391	918.1054077148438	69.97496795654297	208.1035308837891	459.4979553222656	-0.3373290002346039	214.7810821533203	619.5580444335938	-6.642086505889893	-99.53291320800781	188.5023498535156	-147.1077880859375	115.5001373291016	356.1600952148438	-53.55608367919922	-5.073309898376465	38.5572395324707	-53.92917251586914	-61.48928070068359	91.74221038818359	-38.22516250610352	-36.36748886108398	100.4346771240234	-139.5541076660156	-146.5893707275391	218.8419189453125	-96.65105438232422	88.21103668212891	475.2062072753906	280.3023071289062	53.13789367675781	733.7994384765625	327.5289306640625	58.15636444091797	43.44960784912109	204.3058319091797	109.6227416992188	329.9780578613281	261.2442626953125	258.2812194824219	40.73387145996094	254.9434356689453	215.8067016601562	46.2845344543457	192.0112915039062	153.2378845214844	40.46767807006836	265.6403503417969	34.37426376342773	34.20889663696289	137.6507568359375	
436	4.350000000000001	-23.86956024169922	961.744384765625	163.3374481201172	26.51465797424316	957.7899780273438	49.90386581420898	-1.655104994773865	1029.824829101562	101.0416717529297	200.8773345947266	1192.65576171875	173.7405090332031	-16.5041446685791	1133.490356445312	100.1001510620117	19.94760322570801	1364.574462890625	114.3340301513672	166.6859130859375	1287.569702148438	161.7122497558594	-51.60835266113281	1242.8916015625	181.7215728759766	24.03575706481934	1310.734252929688	23.18047904968262	138.1005706787109	1356.022094726562	-15.60544872283936	150.0394134521484	1231.048461914062	-77.99566650390625	174.2245330810547	1021.578186035156	-100.2781829833984	82.47144317626953	1010.387878417969	-65.89778137207031	247.3596954345703	838.2683715820312	-28.38234901428223	196.2070007324219	799.4979248046875	-97.29863739013672	193.6194610595703	940.8325805664062	-95.04607391357422	252.712646484375	681.6011962890625	-14.20206642150879	218.5298004150391	746.4403686523438	-81.20353698730469	266.9788513183594	760.8953857421875	-40.21310806274414	27.18838500976562	1359.383544921875	272.7352905273438	-4.804902076721191	1291.75830078125	323.4699401855469	0.8204358816146851	1025.083129882812	375.2940979003906	-38.96140289306641	1004.999877929688	326.3691101074219	119.7889022827148	828.4047241210938	368.75634765625	38.16654205322266	803.1836547851562	399.5844421386719	7.848117351531982	970.593505859375	384.1617736816406	131.2094116210938	669.6815795898438	375.4842529296875	135.6094665527344	736.8528442382812	398.4863586425781	65.26149749755859	730.8572998046875	406.6134338378906	43.17997360229492	1523.474243164062	211.3269348144531	221.1826019287109	1569.701538085938	130.5128631591797	171.0913391113281	1561.70849609375	247.3648986816406	93.84653472900391	1531.788696289062	57.69979476928711	176.6925964355469	882.6118774414062	-27.0880298614502	26.81624603271484	862.9688720703125	318.6082763671875	142.9096069335938	909.5692749023438	297.7355041503906	233.0701751708984	918.6670532226562	73.02609252929688	217.4638519287109	460.4078063964844	4.613001823425293	221.3433685302734	620.3483276367188	-2.929824590682983	-89.99988555908203	189.9489593505859	-141.7745819091797	125.0069732666016	357.4166870117188	-48.43746948242188	7.537377834320068	40.43869400024414	-51.12136459350586	-49.68098449707031	92.40029144287109	-34.33251953125	-25.37950706481934	102.9897079467773	-135.6534118652344	-137.2489929199219	219.0364685058594	-90.74810791015625	89.39217376708984	474.8921813964844	281.8722839355469	55.54034042358398	733.5910034179688	329.7545471191406	58.17382431030273	43.43109130859375	204.3531494140625	110.3081665039062	329.7012634277344	262.1656188964844	258.301025390625	40.57582473754883	254.9689483642578	215.7913055419922	46.29549789428711	192.095703125	153.279541015625	40.38869476318359	265.7476501464844	34.38627243041992	34.27878189086914	137.667236328125	
437	4.36	-20.89425849914551	961.8323364257812	165.7525329589844	29.53842353820801	957.7866821289062	52.30418395996094	1.341752886772156	1030.1416015625	103.8069458007812	204.1532287597656	1192.908569335938	176.4097595214844	-13.38784027099609	1133.9140625	103.0950012207031	23.17643547058105	1364.87744140625	117.4475784301758	169.9433441162109	1287.83837890625	164.4675903320312	-48.27171325683594	1243.210693359375	185.000732421875	27.01044273376465	1310.999633789062	26.30377578735352	141.0322265625	1356.251831054688	-12.81016635894775	152.8073577880859	1231.25390625	-75.15908050537109	177.2498626708984	1021.756713867188	-97.31488037109375	85.51228332519531	1010.52685546875	-62.89731597900391	251.2423248291016	839.1624755859375	-25.15214347839355	200.2093963623047	799.8909912109375	-93.98292541503906	196.9442596435547	941.2263793945312	-91.97664642333984	257.5323486328125	682.5478515625	-10.65864372253418	222.9303588867188	747.0418701171875	-77.77790832519531	271.2957458496094	761.8729248046875	-36.84299468994141	30.78450965881348	1359.681884765625	275.8233032226562	-1.023197174072266	1292.059448242188	326.6746215820312	4.884775161743164	1025.449096679688	378.6683349609375	-35.34632873535156	1005.368835449219	330.0928955078125	123.6213073730469	828.6476440429688	371.704345703125	42.16364288330078	803.5391235351562	402.9181823730469	11.95181560516357	970.9513549804688	387.5437927246094	134.8574523925781	669.9055786132812	378.4109497070312	139.4859466552734	737.066650390625	401.3751220703125	69.17829132080078	731.1991577148438	409.8516540527344	46.76193618774414	1523.765502929688	214.3484191894531	224.6172637939453	1569.851196289062	133.0085754394531	174.8214111328125	1561.972290039062	249.9775848388672	97.05789184570312	1531.966430664062	60.51114273071289	179.9980926513672	882.9954833984375	-24.30303955078125	29.60756301879883	862.8167114257812	320.8640747070312	145.5920104980469	909.5892944335938	300.5216369628906	236.0979156494141	919.262939453125	76.05767822265625	226.6229095458984	461.5057983398438	9.609548568725586	227.8557281494141	621.2421875	0.7459504008293152	-79.98921203613281	190.7008819580078	-136.2333984375	134.5064239501953	358.6819458007812	-43.24855422973633	20.94064331054688	42.13135528564453	-47.84597778320312	-37.20486450195312	92.64171600341797	-30.08298873901367	-13.70879459381104	105.0777206420898	-131.3778381347656	-127.5947952270508	218.4685974121094	-84.69741058349609	90.62096405029297	474.5943298339844	283.3347473144531	57.99976348876953	733.3587036132812	331.7745666503906	58.19754028320312	43.42638778686523	204.3895874023438	111.0602645874023	329.43310546875	263.0308532714844	258.3233032226562	40.43142318725586	255.0029449462891	215.7828521728516	46.29566955566406	192.174560546875	153.3228759765625	40.31867980957031	265.8476257324219	34.40929794311523	34.36311721801758	137.6752166748047	
438	4.37	-17.95803833007812	961.9158935546875	168.0401611328125	32.56951904296875	957.8423461914062	54.61433410644531	4.32933235168457	1030.467163085938	106.4607543945312	207.38671875	1193.171875	179.0600738525391	-10.28975391387939	1134.343872070312	105.9927062988281	26.40644836425781	1365.185546875	120.4699630737305	173.1729278564453	1288.110107421875	167.1783447265625	-44.96559906005859	1243.537475585938	188.1572875976562	30.01290321350098	1311.28662109375	29.33414649963379	143.9992828369141	1356.490234375	-10.05994129180908	155.5913848876953	1231.495239257812	-72.39262390136719	180.2057952880859	1021.978942871094	-94.48290252685547	88.47066497802734	1010.715698242188	-60.0136604309082	255.0220947265625	840.0668334960938	-22.06954956054688	204.1152648925781	800.327880859375	-90.8243408203125	200.1822967529297	941.6636352539062	-89.03720855712891	262.2757873535156	683.5184326171875	-7.316499710083008	227.2353363037109	747.6887817382812	-74.52738189697266	275.5010070800781	762.8768310546875	-33.64512634277344	34.30444717407227	1359.996215820312	278.826904296875	2.678321599960327	1292.374755859375	329.775390625	8.932430267333984	1025.823608398438	381.9390258789062	-31.77519607543945	1005.750427246094	333.7244262695312	127.3974533081055	828.8903198242188	374.5677185058594	46.10970687866211	803.9136352539062	406.1601867675781	16.03140449523926	971.3263549804688	390.8209838867188	138.4297332763672	670.131591796875	381.2776794433594	143.3005981445312	737.28125	404.1907043457031	73.01630401611328	731.5484008789062	413.0108947753906	50.35250473022461	1524.072509765625	217.2877807617188	228.0480194091797	1569.983276367188	135.4548645019531	178.5460510253906	1562.229125976562	252.5410766601562	100.2745590209961	1532.140380859375	63.26482391357422	183.4112091064453	883.466796875	-21.56050872802734	32.18894958496094	862.6552124023438	323.0751647949219	148.2066345214844	909.60107421875	303.25830078125	239.1093902587891	919.8853149414062	79.05698394775391	235.6028747558594	462.76123046875	14.6501522064209	234.2938995361328	622.225341796875	4.39788293838501	-69.49990844726562	190.7568664550781	-130.5090789794922	144.0128173828125	359.9196472167969	-37.99048233032227	35.01834106445312	43.56501007080078	-44.07526397705078	-24.13172340393066	92.47867584228516	-25.46595001220703	-1.425065875053406	106.6621704101562	-126.715950012207	-117.6146087646484	217.1682891845703	-78.54888916015625	91.90380096435547	474.3090515136719	284.6852111816406	60.59432601928711	733.089111328125	333.5549926757812	58.22858428955078	43.43591690063477	204.4130554199219	111.8810043334961	329.1678466796875	263.8399353027344	258.3471069335938	40.30160903930664	255.0429077148438	215.7901611328125	46.28419876098633	192.2495269775391	153.3688812255859	40.25564575195312	265.9375915527344	34.44549179077148	34.46280288696289	137.6734619140625	
